# xmcd
#
# Track frame offsets:
#       150
#       46747
#       160892
#       223789
#       239688
#       267598
#       288947
#
# Disc length: 4153 seconds
#
# Revision: 0
# Processed by: cddbd v1.5.1PL0 Copyright (c) Steve Scherf et al.
# Submitted via: WaveLab 4.01
#
DISCID=68103707
DTITLE=Waveworld - The Falls of Varnal
DYEAR=2004
DGENRE=Electronic
TTITLE0=Another Strange Day on Gonxa
TTITLE1=Structures I
TTITLE2=Structures II
TTITLE3=Sphere
TTITLE4=Cloudseeder
TTITLE5=The Moons Above Laax
TTITLE6=Trasyyqhu
EXTD=
EXTT0=
EXTT1=
EXTT2=
EXTT3=
EXTT4=
EXTT5=
EXTT6=
PLAYORDER=
